# xmcd
#
# Track frame offsets:
#	150
#	12310
#	26929
#	51335
#	65912
#	108330
#	122341
#	152076
#	168039
#	179208
#	189966
#	203630
#	217518
#	230265
#	245061
#	259151
#	273633
#	273936
#	284784
#	287398
#	300627
#	311772
#	325620
#	337834
#
# Disc length: 4689 seconds
#
# Revision: 1
# Processed by: cddbd v1.5.2PL0 Copyright (c) Steve Scherf et al.
# Submitted via: EZCDAudioConverter 2.1.7.1
#
DISCID=5f124f18
DTITLE=Beach Boys - Pet Sounds 50th 3/4
DYEAR=2016
DGENRE=
TTITLE0=Good Vibrations [Highlights from First Tracking Date]
TTITLE1=Good Vibrations [Stereo Backing Track]
TTITLE2=I'm Waiting For The Day [Highlights from Tracking Date]
TTITLE3=I'm Waiting For The Day [Stereo Backing Track]
TTITLE4=God Only Knows [Highlights from Tracking Date]
TTITLE5=God Only Knows [Stereo Backing Track]
TTITLE6=Here Today [Highlights from Tracking Date]
TTITLE7=Here Today [Stereo Backing Track]
TTITLE8=Wouldn't It Be Nice [Mono Alternate Mix 1]
TTITLE9=You Still Believe In Me [Mono Alternate Mix]
TTITLE10=I'm Waiting For The Day [Mono Alternate Mix, Mike sings lead]
TTITLE11=Sloop John B [Mono Alternate Mix, Carl sings first verse]
TTITLE12=God Only Knows [Mono Alternate Mix with Sax Solo]
TTITLE13=I Know There's An Answer [Alternate Mix]
TTITLE14=Here Today [Mono Alternate Mix, Brian sings lead]
TTITLE15=I Just Wasn't Made For These Times [Mono Alternate Mix]
TTITLE16=Banana and Louie
TTITLE17=Caroline No [Original Speed, Stereo Mix]
TTITLE18=Dog Barking Session
TTITLE19=God Only Knows [with A Cappella Tag]
TTITLE20=Wouldn't It Be Nice [Mono Alternate Mix 2]
TTITLE21=Sloop John B [Mono Alternate Mix, Brian sings lead throughout]
TTITLE22=God Only Knows [Mono Alternate Mix, Brian sings lead]
TTITLE23=Caroline No [Original Speed, Mono Mix]
EXTD=
EXTT0=
EXTT1=
EXTT2=
EXTT3=
EXTT4=
EXTT5=
EXTT6=
EXTT7=
EXTT8=
EXTT9=
EXTT10=
EXTT11=
EXTT12=
EXTT13=
EXTT14=
EXTT15=
EXTT16=
EXTT17=
EXTT18=
EXTT19=
EXTT20=
EXTT21=
EXTT22=
EXTT23=
PLAYORDER=
